<svg width="100" height="96" viewBox="0 0 100 96" fill="none" xmlns="http://www.w3.org/2000/svg">
<g clip-path="url(#clip0_49_207)">
<path d="M100 0.5H0V95.5H100V0.5Z" fill="#282423"/>
<path d="M60.3063 86.4567L25.643 85.4121" stroke="#FF834F" stroke-width="2"/>
<path d="M59.1428 86.4437L39.6447 81.2208" stroke="#FF834F" stroke-width="2"/>
<path d="M25.5537 85.813L39.6356 81.6347" stroke="#FF834F" stroke-width="2"/>
<path d="M26.4672 85.2682L10.2188 63.3322" stroke="#FF834F" stroke-width="2"/>
<path d="M10.2724 64.19L10.3234 48.5214" stroke="#FF834F"/>
<path d="M10.1739 48.4336L17.7565 23.3639" stroke="#FF834F" stroke-width="2"/>
<path d="M17.9198 23.1603L48.2502 8.53624" stroke="#FF834F" stroke-width="2"/>
<path d="M47.4102 8.51196L74.4909 15.824" stroke="#FF834F" stroke-width="2"/>
<path d="M73.5685 15.9315L86.5672 30.5556" stroke="#FF834F" stroke-width="2"/>
<path d="M86.6389 29.6808L88.8053 46.394" stroke="#FF834F" stroke-width="2"/>
<path d="M88.8067 46.4605L86.6403 70.4856" stroke="#FF834F" stroke-width="2"/>
<path d="M86.4882 70.7376L59.4075 86.4062" stroke="#FF834F" stroke-width="2"/>
<path d="M73.3608 15.4227L57.1125 17.5118" stroke="#FF834F" stroke-width="2"/>
<path d="M73.6106 16.2827L68.1945 26.7284" stroke="#FF834F" stroke-width="2"/>
<path d="M69.0612 26.266L87.476 30.4443" stroke="#FF834F" stroke-width="2"/>
<path d="M57.2653 17.9672L69.1807 26.3238" stroke="#FF834F" stroke-width="2"/>
<path d="M48.6508 8.61499L57.3166 18.0162" stroke="#FF834F" stroke-width="2"/>
<path d="M56.293 17.2933L47.6272 40.2739" stroke="#FF834F" stroke-width="2"/>
<path d="M48.2178 39.8931L69.8823 26.3136" stroke="#FF834F" stroke-width="2"/>
<path d="M86.5507 29.9478L65.9694 49.7947" stroke="#FF834F" stroke-width="2"/>
<path d="M66.697 50.9186L49.3654 44.6511" stroke="#FF834F" stroke-width="2"/>
<path d="M49.1797 44.4619L47.0132 39.2391" stroke="#FF834F" stroke-width="2"/>
<path d="M47.0447 39.3016L32.9628 19.4547" stroke="#FF834F" stroke-width="2"/>
<path d="M33.029 20.0641L48.1942 8.57374" stroke="#FF834F" stroke-width="2"/>
<path d="M33.3081 19.5961L18.143 22.7298" stroke="#FF834F" stroke-width="2"/>
<path d="M89.6102 46.7597L65.7792 49.8934" stroke="#FF834F" stroke-width="2"/>
<path d="M65.9696 50.3836L86.5509 70.2305" stroke="#FF834F" stroke-width="2"/>
<path d="M87.375 71.832L71.1266 70.7874" stroke="#FF834F" stroke-width="2"/>
<path d="M71.417 70.6475L59.5015 86.3161" stroke="#FF834F" stroke-width="2"/>
<path d="M72.0229 70.7112L55.7745 58.1763" stroke="#FF834F" stroke-width="2"/>
<path d="M55.7864 57.6611L67.7019 49.3045" stroke="#FF834F" stroke-width="2"/>
<path d="M54.5942 58.0373L49.1781 44.4578" stroke="#FF834F" stroke-width="2"/>
<path d="M18.3309 23.2522L31.3296 38.9208" stroke="#FF834F" stroke-width="2"/>
<path d="M30.7452 38.0396L32.9117 20.2818" stroke="#FF834F" stroke-width="2"/>
<path d="M30.11 37.7709L49.608 45.0829" stroke="#FF834F" stroke-width="2"/>
<path d="M31.3967 38.0666L32.4799 71.4927" stroke="#FF834F" stroke-width="2"/>
<path d="M16.6616 46.4195L17.7448 22.3945" stroke="#FF834F" stroke-width="2"/>
<path d="M10.2524 51.428L16.7517 45.1605" stroke="#FF834F" stroke-width="2"/>
<path d="M10.7191 51.4219L32.3836 71.2688" stroke="#FF834F" stroke-width="2"/>
<path d="M32.4249 71.3196L40.0074 81.7653" stroke="#FF834F" stroke-width="2"/>
<path d="M16.1146 45.1356L32.363 57.6705" stroke="#FF834F" stroke-width="2"/>
<path d="M32.1688 56.5494L55.9997 57.594" stroke="#FF834F" stroke-width="2"/>
<path d="M55.2261 57.89L58.4757 87.138" stroke="#FF834F" stroke-width="2"/>
<path d="M58.9818 86.3367L31.9011 56.0441" stroke="#FF834F" stroke-width="2"/>
<path d="M87.3976 70.4583H86.3144V71.5028H87.3976V70.4583Z" fill="#FF834F"/>
<path d="M31.1876 57.1866L10.6063 64.4987" stroke="#FF834F" stroke-width="2"/>
<path d="M11.7422 63.9094L24.741 71.2214" stroke="#FF834F" stroke-width="2"/>
<path d="M24.8965 71.4788L25.9797 85.0579" stroke="#FF834F" stroke-width="2"/>
<path d="M24.5707 71.1731H32.1532" stroke="#FF834F" stroke-width="2"/>
</g>
<defs>
<clipPath id="clip0_49_207">
<rect width="100" height="95" fill="white" transform="translate(0 0.5)"/>
</clipPath>
</defs>
</svg>
